<?xml version="1.0" encoding="utf-8"?>
<!-- Generator: Adobe Illustrator 26.0.1, SVG Export Plug-In . SVG Version: 6.00 Build 0)  -->
<svg version="1.1" id="Layer_1" xmlns="http://www.w3.org/2000/svg" xmlns:xlink="http://www.w3.org/1999/xlink" x="0px" y="0px"
	 viewBox="0 0 793.4 793.7" style="enable-background:new 0 0 1587.4 793.7;" xml:space="preserve">
<style type="text/css">
	.st0{fill:#121212;}
</style>
<g>
	<g>
		<g>
			<g>
				<path d="M486.07,247.64c33.62-4.54,67.25-9.08,100.86-13.63c8.79-1.18,17.58-2.38,27.94-3.79c-0.02-0.01-0.03-0.02-0.05-0.03
					l0.35-0.05l-4.42-2.62h-0.01c-0.33-0.22-0.65-0.41-0.96-0.61c-18.92-11.24-37.8-22.53-56.78-33.67
					c-50.75-29.76-101.51-59.48-152.38-89.03c-0.96-0.56-2.38-0.8-3.78-0.77v155.88c1.11-0.03,2.22-0.09,3.32-0.23
					C428.84,255.59,457.44,251.52,486.07,247.64z"/>
				<path d="M621.16,306.91c-0.01-18.32,0-36.64,0-54.96v-3.29l-0.88,1.49l-0.64,1.06c-70.78,119.32-141.55,238.63-213.1,359.24
					c3.87-2.04,6.52-3.33,9.07-4.8c67.08-38.7,134.13-77.44,201.27-116.01c3.99-2.29,4.43-5.21,4.43-9.08
					C621.22,422.69,621.19,364.8,621.16,306.91z"/>
				<path d="M606.56,253.42c-0.01,0-0.01,0.01-0.02,0.01l0.67-1.12l-4.17,2.45l0.05,0.02c-0.06,0.03-0.12,0.06-0.18,0.1
					c-21.61,12.66-129.3,75.81-129.3,75.81l-0.56,0.34l-62.18,36.79l-13.68,8.09l-0.33,0.19v12.14v1.1v0.07l1.2-0.71l4.08-2.41
					l17.55-10.38l13.68-8.09l40.24-23.8v31.9l0,6.4c-0.01,10.59-8.59,19.18-19.19,19.19h-19.19v31.98
					c-0.02,12.7-7.55,24.19-19.19,29.27v21.9c-0.02,8.1-5.15,15.32-12.79,18.01v7.57c0,1.17-0.32,2.26-0.86,3.2
					c0.03,25.07,0.07,50.14,0.11,75.21l-0.02-0.01v8.56l3.92-6.64l-0.04-0.02C473.3,477.79,539.54,366.26,606.56,253.42z"/>
				<path d="M470.4,321.31c27.37-16.17,54.74-32.31,82.1-48.48c14.48-8.56,28.9-17.2,43.34-25.82v0.01l9.45-5.62l-11.51,1.62
					l0.01,0.01c-24.72,3.4-49.43,6.81-74.14,10.25c-35.28,4.91-70.55,9.9-105.84,14.73c-5.6,0.77-11.36,1.9-16.96,1.87v93.01v0.24
					l0.45-0.26L470.4,321.31z"/>
			</g>
		</g>
		<g>
			<g>
				<path class="st0" d="M307.63,247.64c-33.62-4.54-67.25-9.08-100.86-13.63c-8.79-1.18-17.58-2.38-27.94-3.79
					c0.02-0.01,0.03-0.02,0.05-0.03l-0.35-0.05l4.42-2.62h0.01c0.33-0.22,0.65-0.41,0.96-0.61c18.92-11.24,37.8-22.53,56.78-33.67
					c50.75-29.76,101.51-59.48,152.38-89.03c0.96-0.56,2.38-0.8,3.78-0.77v155.88c-1.11-0.03-2.22-0.09-3.32-0.23
					C364.86,255.59,336.26,251.52,307.63,247.64z"/>
				<path class="st0" d="M172.54,306.91c0.01-18.32,0-36.64,0-54.96v-3.29l0.88,1.49l0.64,1.06
					c70.78,119.32,141.55,238.63,213.1,359.24c-3.87-2.04-6.52-3.33-9.07-4.8c-67.08-38.7-134.13-77.44-201.27-116.01
					c-3.99-2.29-4.43-5.21-4.43-9.08C172.48,422.69,172.51,364.8,172.54,306.91z"/>
				<path class="st0" d="M187.14,253.42c0.01,0,0.01,0.01,0.02,0.01l-0.67-1.12l4.17,2.45l-0.05,0.02c0.06,0.03,0.12,0.06,0.18,0.1
					c21.61,12.66,129.3,75.81,129.3,75.81l0.56,0.34l62.18,36.79l13.68,8.09l0.33,0.19v12.14v1.1v0.07l-1.2-0.71l-4.08-2.41
					l-17.55-10.38l-13.68-8.09l-40.24-23.8v31.9l0,6.4c0.01,10.59,8.59,19.18,19.19,19.19h19.19v31.98
					c0.02,12.7,7.55,24.19,19.19,29.27v21.9c0.02,8.1,5.15,15.32,12.79,18.01v7.57c0,1.17,0.32,2.26,0.86,3.2
					c-0.03,25.07-0.07,50.14-0.11,75.21l0.02-0.01v8.56l-3.92-6.64l0.04-0.02C320.4,477.79,254.16,366.26,187.14,253.42z"/>
				<path class="st0" d="M323.3,321.31c-27.37-16.17-54.74-32.31-82.1-48.48c-14.48-8.56-28.9-17.2-43.34-25.82v0.01l-9.45-5.62
					l11.51,1.62l-0.01,0.01c24.72,3.4,49.43,6.81,74.14,10.25c35.28,4.91,70.55,9.9,105.84,14.73c5.6,0.77,11.36,1.9,16.96,1.87
					v93.01v0.24l-0.45-0.26L323.3,321.31z"/>
			</g>
		</g>
	</g>
	<g>
		<path d="M204.15,675.31c-0.91-0.32-1.65-0.79-2.22-1.4c-0.57-0.61-0.94-1.35-1.12-2.22c-0.18-0.87-0.11-1.85,0.21-2.95l3.34-11.66
			c0.32-1.09,0.82-2.07,1.49-2.95s1.46-1.61,2.37-2.22s1.91-1.07,3.01-1.4c1.09-0.32,2.19-0.48,3.28-0.48h32.62l-1.28,4.43
			c-0.2,0.69-0.47,1.41-0.79,2.16c-0.32,0.75-0.7,1.45-1.12,2.1c-0.43,0.65-0.91,1.19-1.46,1.61c-0.55,0.43-1.12,0.64-1.73,0.64
			h-24.91l-1.15,3.89h20.05c1.09,0,2.1,0.16,3.01,0.49s1.65,0.79,2.22,1.4c0.57,0.61,0.94,1.35,1.12,2.22
			c0.18,0.87,0.11,1.85-0.21,2.95l-3.34,11.6c-0.32,1.09-0.82,2.08-1.49,2.95s-1.46,1.61-2.37,2.22s-1.91,1.07-3.01,1.4
			c-1.09,0.32-2.19,0.49-3.28,0.49h-32.62l3.16-10.93h28.19l1.09-3.83h-20.05C206.06,675.79,205.06,675.63,204.15,675.31z"/>
		<path d="M251.99,650.04h34.56c1.09,0,2.1,0.16,3.01,0.48s1.65,0.79,2.22,1.4s0.94,1.35,1.12,2.22c0.18,0.87,0.11,1.85-0.21,2.95
			l-4.56,15.98c-0.32,1.09-0.83,2.08-1.52,2.95c-0.69,0.87-1.49,1.61-2.4,2.22s-1.91,1.07-3.01,1.4c-1.09,0.32-2.19,0.49-3.28,0.49
			h-21.99l-2.98,10.45h-12.57L251.99,650.04z M276.65,669.17l2.37-8.2h-17.55l-2.37,8.2H276.65z"/>
		<path d="M303.99,650.04h25.57l6.01,40.52h-13.91l-0.79-5.71h-19.56l-4.07,5.71H283.4l23.51-32.68L303.99,650.04z M309.15,673.85
			h10.21l-1.58-12.03L309.15,673.85z"/>
		<path d="M337.4,660.97l3.1-10.93h38.88l-1.28,4.43c-0.2,0.69-0.47,1.41-0.79,2.16s-0.7,1.45-1.12,2.1
			c-0.42,0.65-0.91,1.19-1.46,1.61c-0.55,0.43-1.12,0.64-1.73,0.64h-9.9l-8.5,29.58h-12.57l8.5-29.58H337.4z"/>
		<path d="M372.7,690.55l11.6-40.52h12.57l-11.6,40.52H372.7z"/>
		<path d="M409.88,650.04h25.57l6.01,40.52h-13.91l-0.79-5.71H407.2l-4.07,5.71h-13.85l23.51-32.68L409.88,650.04z M415.04,673.85
			h10.21l-1.58-12.03L415.04,673.85z"/>
		<path d="M469.59,650.04l-8.44,29.58h23.08l-3.16,10.93h-35.66l11.6-40.52H469.59z"/>
		<path d="M537.51,660.97h-25.63l3.1-10.93h30.07c1.09,0,2.1,0.16,3.01,0.48c0.91,0.32,1.65,0.79,2.22,1.4s0.94,1.35,1.12,2.22
			c0.18,0.87,0.11,1.85-0.21,2.95l-1.94,6.8c-0.45,1.42-1.16,2.65-2.16,3.71s-2.16,1.86-3.49,2.43c0.93,0.53,1.62,1.28,2.07,2.25
			c0.45,0.97,0.51,2.11,0.18,3.4l-2.25,7.84c-0.32,1.09-0.82,2.08-1.49,2.95c-0.67,0.87-1.46,1.61-2.37,2.22s-1.91,1.07-3.01,1.4
			c-1.09,0.32-2.19,0.49-3.28,0.49h-30.07l3.16-10.93h25.63l1.09-3.83h-21.93l3.1-10.94h21.93L537.51,660.97z"/>
		<path d="M555.19,650.04h39.73c1.09,0,2.1,0.16,3.01,0.48s1.65,0.79,2.22,1.4c0.57,0.61,0.94,1.35,1.12,2.22s0.11,1.85-0.21,2.95
			l-7.59,26.42c-0.32,1.09-0.82,2.08-1.49,2.95s-1.46,1.61-2.37,2.22s-1.91,1.07-3.01,1.4c-1.09,0.32-2.19,0.49-3.28,0.49h-34.56
			l9.36-32.68L555.19,650.04z M587.38,660.97h-17.56l-5.35,18.65h17.56L587.38,660.97z"/>
	</g>
</g>
<g>
	<g>
	</g>
</g>
</svg>
